<svg width="26" height="26" viewBox="0 0 26 26" fill="none"
    xmlns="http://www.w3.org/2000/svg">
    <g clip-path="url(#clip0_1455_5)">
        <path d="M20.8 0H5.2C2.32812 0 0 2.32812 0 5.2V20.8C0 23.6719 2.32812 26 5.2 26H20.8C23.6719 26 26 23.6719 26 20.8V5.2C26 2.32812 23.6719 0 20.8 0Z" fill="#855DCD"/>
        <path d="M6.70312 4.04492H19.2987V21.956H17.4498V13.7516H17.4317C17.2273 11.4841 15.3216 9.70712 13.0009 9.70712C10.6802 9.70712 8.77449 11.4841 8.57013 13.7516H8.55201V21.956H6.70312V4.04492Z" fill="white"/>
        <path d="M3.35156 6.58691L4.10268 9.12914H4.73822V19.4136C4.41912 19.4136 4.16045 19.6723 4.16045 19.9914V20.6847H4.0449C3.72581 20.6847 3.46711 20.9434 3.46711 21.2625V21.9558H9.93822V21.2625C9.93822 20.9434 9.67955 20.6847 9.36045 20.6847H9.2449V19.9914C9.2449 19.6723 8.9862 19.4136 8.66711 19.4136H7.97379V6.58691H3.35156Z" fill="white"/>
        <path d="M17.5641 19.4136C17.245 19.4136 16.9863 19.6723 16.9863 19.9914V20.6847H16.8707C16.5516 20.6847 16.293 20.9434 16.293 21.2625V21.9558H22.7641V21.2625C22.7641 20.9434 22.5054 20.6847 22.1863 20.6847H22.0707V19.9914C22.0707 19.6723 21.8121 19.4136 21.493 19.4136V9.12914H22.1285L22.8796 6.58691H18.2574V19.4136H17.5641Z" fill="white"/>
    </g>
    <defs>
        <clipPath id="clip0_1455_5">
            <rect width="26" height="26" fill="white"/>
        </clipPath>
    </defs>
</svg>
