<svg width="187" height="30" viewBox="0 0 187 30" fill="none" xmlns="http://www.w3.org/2000/svg">
<path d="M65.6213 28.0129H59.3713L58.0252 26.5706C57.1918 27.1475 56.2944 27.5642 55.3649 27.8527C54.4354 28.1411 53.3777 28.2693 52.1918 28.2693C49.9802 28.2693 48.0572 27.9168 46.3905 27.2116C44.7238 26.5065 43.3456 25.545 42.2238 24.3591C41.102 23.1732 40.2687 21.7629 39.6917 20.1283C39.1469 18.5257 38.8584 16.7949 38.8584 14.9359C38.8584 13.077 39.1789 11.3462 39.7879 9.7436C40.3969 8.14103 41.2943 6.73077 42.4482 5.51282C43.602 4.32691 45.0123 3.36537 46.6469 2.66024C48.2815 1.95511 50.1405 1.60254 52.1918 1.60254C54.2751 1.60254 56.1341 1.95511 57.8008 2.66024C59.4354 3.36537 60.8457 4.32691 61.9995 5.51282C63.1534 6.69872 64.0188 8.10898 64.6278 9.7436C65.2367 11.3462 65.5252 13.077 65.5252 14.9359C65.5252 16.7949 65.1726 18.4616 64.4995 19.936C63.7944 21.4103 62.929 22.6924 61.8713 23.7821L65.6213 28.0129ZM52.1918 23.1411C53.0572 23.1411 53.8905 22.9809 54.6277 22.6924L50.3328 17.8847H56.6149L57.8649 19.2949C58.3777 18.077 58.6662 16.6347 58.6662 14.9359C58.6662 13.7821 58.538 12.7244 58.2816 11.7308C58.0252 10.7372 57.6405 9.87181 57.0957 9.13463C56.5828 8.39744 55.9098 7.78847 55.0764 7.3718C54.2751 6.95513 53.2815 6.73077 52.1277 6.73077C50.9738 6.73077 50.0123 6.95513 49.179 7.40385C48.3456 7.85257 47.6725 8.4295 47.1597 9.16668C46.6469 9.90386 46.2302 10.7693 45.9738 11.7628C45.7174 12.7564 45.5892 13.8141 45.5892 14.9359C45.5892 16.0577 45.7174 17.1154 45.9738 18.109C46.2302 19.1026 46.6469 19.968 47.1597 20.7372C47.6725 21.4744 48.3777 22.0834 49.179 22.5001C50.1085 22.9167 51.07 23.1411 52.1918 23.1411Z" fill="#2D0060"/>
<path d="M69.2432 8.42969H75.3329V19.6797C75.3009 20.1285 75.365 20.5451 75.4611 20.9938C75.5573 21.4426 75.7496 21.8272 76.006 22.1797C76.2624 22.5323 76.615 22.8208 77.0317 23.0131C77.4483 23.2374 77.9612 23.3336 78.5381 23.3336C78.9868 23.3336 79.4035 23.2695 79.8201 23.1092C80.2368 22.949 80.5894 22.7246 80.9099 22.4362C81.2304 22.1477 81.4868 21.7951 81.6791 21.3785C81.8714 20.9618 81.9676 20.481 81.9676 19.9361V8.46173H88.1856V28.0452H81.9996V24.6798C81.8073 25.1926 81.5189 25.7054 81.1663 26.1221C80.8137 26.5708 80.365 26.9554 79.8842 27.2439C79.4035 27.5644 78.8265 27.8208 78.2176 28.0131C77.5765 28.2054 76.9355 28.3016 76.2624 28.3016C75.3329 28.3016 74.4675 28.1413 73.6022 27.8528C72.7688 27.5644 71.9996 27.1157 71.3906 26.5067C70.7496 25.8977 70.2368 25.1605 69.8521 24.2951C69.4675 23.3977 69.2752 22.3721 69.2752 21.2182V8.42969H69.2432Z" fill="#2D0060"/>
<path d="M109.243 22.6284C109.243 23.0772 109.372 23.3977 109.596 23.59C109.82 23.8143 110.109 23.9105 110.397 23.9746C110.718 24.0067 111.006 24.0066 111.327 23.9105C111.647 23.8143 111.872 23.7182 112.064 23.59V27.0836C111.808 27.3079 111.487 27.5002 111.102 27.6926C110.782 27.8528 110.397 27.981 109.917 28.1092C109.436 28.2374 108.923 28.3015 108.346 28.3015C107.481 28.3015 106.776 28.1733 106.199 27.8849C105.622 27.5964 105.141 27.2759 104.788 26.9233C104.436 26.5708 104.147 26.1861 103.987 25.8015C103.795 25.4169 103.699 25.1285 103.634 24.9361C103.378 25.5772 102.961 26.122 102.384 26.6028C101.904 27.0515 101.231 27.4362 100.397 27.7887C99.5639 28.1413 98.4742 28.3015 97.1601 28.3015C96.1344 28.3015 95.237 28.1733 94.4678 27.8849C93.6985 27.5964 93.0896 27.2438 92.5767 26.7631C92.0639 26.2823 91.6793 25.7054 91.4549 25.0643C91.1985 24.4233 91.0703 23.7182 91.0703 22.949C91.0703 21.8592 91.2947 20.9938 91.7754 20.3528C92.2242 19.6797 92.769 19.1669 93.4101 18.7823C94.0511 18.3976 94.6601 18.1092 95.2691 17.9489C95.878 17.7887 96.3588 17.6605 96.6473 17.5643C97.096 17.4682 97.4806 17.3399 97.8652 17.2758C98.2178 17.1797 98.6345 17.0835 99.1152 16.9874C99.5639 16.8912 100.141 16.763 100.814 16.6348C101.487 16.5066 102.352 16.3464 103.41 16.1861C103.41 15.3207 103.186 14.5515 102.737 13.9425C102.288 13.3015 101.551 13.013 100.558 13.013C99.6922 13.013 98.987 13.2694 98.5062 13.7822C98.0255 14.2951 97.705 14.9681 97.6409 15.7374C96.6473 15.7053 95.6857 15.6092 94.7562 15.481C93.8267 15.3528 92.8652 15.2566 91.8716 15.2246C91.9678 14.231 92.2562 13.3335 92.7049 12.5002C93.1537 11.6668 93.7626 10.9297 94.4998 10.3207C95.237 9.67966 96.1344 9.19889 97.1601 8.84632C98.1857 8.49376 99.3716 8.3335 100.654 8.3335C102.417 8.3335 103.859 8.55786 104.981 8.97452C106.102 9.39119 107 9.93607 107.641 10.5771C108.282 11.2181 108.731 11.9233 108.987 12.6925C109.243 13.4617 109.372 14.1989 109.372 14.872V22.6284H109.243ZM97.128 22.0515C97.128 22.5643 97.2562 22.949 97.5447 23.2695C97.8332 23.59 98.1857 23.7823 98.6024 23.9105C99.0191 24.0066 99.4998 24.0387 100.013 23.9425C100.525 23.8464 101.006 23.6541 101.455 23.3336C102.192 22.8207 102.673 22.2759 102.897 21.6669C103.154 21.0579 103.25 20.2566 103.25 19.2951C102.577 19.4874 101.904 19.6156 101.167 19.7118C100.429 19.8079 99.7883 19.9361 99.1793 20.0964C98.5704 20.2566 98.0896 20.481 97.6729 20.7695C97.3203 21.0259 97.128 21.4425 97.128 22.0515Z" fill="#2D0060"/>
<path d="M128.314 13.5258C128.154 13.4937 127.897 13.4937 127.513 13.4616C127.128 13.4616 126.711 13.4616 126.263 13.4937C125.814 13.5258 125.301 13.5899 124.788 13.686C124.275 13.7822 123.795 13.9424 123.378 14.1347C122.705 14.4552 122.16 14.8399 121.743 15.2565C121.327 15.6732 121.038 15.9937 120.846 16.2501V28.013H114.628V8.42958H120.686V12.3398C120.782 12.0193 121.006 11.5706 121.359 10.9616C121.711 10.3527 122.256 9.77573 122.993 9.26291C123.57 8.84624 124.147 8.55778 124.724 8.39753C125.301 8.23727 125.846 8.17316 126.327 8.14111C126.807 8.14111 127.256 8.17317 127.609 8.23727C127.961 8.30137 128.186 8.33342 128.314 8.36547V13.5258Z" fill="#2D0060"/>
<path d="M138.089 20.8335L136.551 22.436V28.013H130.333V1.79492H136.551V15.7373L142.513 8.46162H149.724L142.32 17.1796L150.109 28.045H142.993L138.089 20.8335Z" fill="#2D0060"/>
<path d="M153.699 28.013V1.79492H158.635V28.013H153.699Z" fill="#008AA1"/>
<path d="M164.789 28.013V1.79492H173.955C175.75 1.79492 177.417 2.11544 178.987 2.75646C180.558 3.39749 181.968 4.29493 183.154 5.44878C184.34 6.60264 185.302 7.98084 185.975 9.58342C186.68 11.186 187 12.9488 187 14.904C187 16.827 186.648 18.6219 185.943 20.2245C185.237 21.8271 184.276 23.2053 183.09 24.3591C181.904 25.513 180.494 26.4104 178.923 27.0514C177.353 27.6925 175.686 28.013 173.923 28.013H164.789ZM182 14.8719C182 13.6539 181.808 12.5322 181.423 11.4424C181.039 10.3527 180.494 9.42316 179.789 8.62187C179.084 7.82059 178.218 7.17956 177.192 6.69879C176.167 6.21802 175.013 5.99366 173.763 5.99366H169.468V23.8784H173.763C174.981 23.8784 176.103 23.6219 177.096 23.1091C178.122 22.5963 178.987 21.9232 179.692 21.0899C180.43 20.2566 180.975 19.295 181.391 18.2053C181.808 17.1155 182 15.9937 182 14.8719Z" fill="#008AA1"/>
<path d="M20.6531 28.8463C20.3967 28.5258 20.1403 28.1732 19.948 27.8207L19.8518 27.6604L15.7813 20.2886L11.6467 27.6924L11.5505 27.8527C11.3262 28.2053 11.1018 28.5578 10.8454 28.8784C10.7172 29.0386 10.5569 29.1989 10.4287 29.3591H21.1018C20.9416 29.1989 20.7813 29.0386 20.6531 28.8463Z" fill="#7BD1E0"/>
<path d="M5.14041 16.763H5.17246H5.20451H5.36477L13.8263 16.9232L9.46735 9.64756L9.3712 9.4873C9.14684 9.13474 8.98658 8.75012 8.82632 8.3655C8.76222 8.17319 8.69812 7.98088 8.63402 7.78857L3.31348 16.9873C3.50579 16.9232 3.69809 16.8912 3.92245 16.8591C4.30707 16.795 4.72374 16.763 5.14041 16.763Z" fill="#7BD1E0"/>
<path d="M22.1275 9.4873L22.0314 9.64756L17.6724 16.8912L26.1339 16.7309H26.2942H26.3263H26.3583H26.3904C26.807 16.7309 27.2237 16.763 27.6083 16.8271C27.8006 16.8591 27.9929 16.8912 28.1852 16.9553L22.8647 7.78857C22.8006 7.98088 22.7365 8.17319 22.6724 8.3655C22.5442 8.75012 22.3519 9.10268 22.1275 9.4873Z" fill="#7BD1E0"/>
<path d="M11.294 8.36551L11.3902 8.52577L15.7491 15.8014L20.1081 8.52577L20.2043 8.39756C20.2363 8.33346 20.2684 8.26936 20.3005 8.20525C20.2684 8.26936 20.2363 8.33346 20.2043 8.39756L20.5889 7.59628C20.8133 7.0514 20.9094 6.44242 20.9094 5.8014C20.9094 2.94882 18.6017 0.641113 15.7491 0.641113C12.8966 0.641113 10.5889 2.94882 10.5889 5.8014C10.5889 6.44242 10.7171 7.0514 10.9094 7.59628C11.0055 7.85269 11.1337 8.1091 11.294 8.36551Z" fill="url(#paint0_linear_1173_382)"/>
<path d="M26.3583 29.2953C28.1532 29.2953 29.884 28.3658 30.8135 26.7312C31.7429 25.1607 31.7109 23.2697 30.9096 21.7633L30.6852 21.3786C30.2686 20.7056 29.6596 20.1286 28.9224 19.6799C28.3775 19.3594 27.8006 19.1671 27.1916 19.0709C26.9032 19.0389 26.6147 19.0068 26.3263 19.0068H26.166L17.6724 19.1671L21.807 26.603L21.9032 26.7633C22.0314 27.0197 22.2237 27.2441 22.3839 27.4684C22.7685 27.9171 23.2173 28.3338 23.7942 28.6543C24.5955 29.071 25.4609 29.2953 26.3583 29.2953Z" fill="url(#paint1_linear_1173_382)"/>
<path d="M5.33253 19.0068H5.17227C4.88381 19.0068 4.59534 19.0389 4.30688 19.0709C3.72995 19.1671 3.12097 19.3594 2.5761 19.6799C0.10814 21.0902 -0.725195 24.2633 0.685068 26.7312C1.64661 28.3979 3.37739 29.2953 5.14021 29.2953C6.0056 29.2953 6.90304 29.071 7.70433 28.5902C8.2492 28.2697 8.72998 27.8851 9.1146 27.4043C9.3069 27.1799 9.46716 26.9235 9.59537 26.6992L9.69152 26.5389L13.7941 19.103L5.33253 19.0068Z" fill="url(#paint2_linear_1173_382)"/>
<defs>
<linearGradient id="paint0_linear_1173_382" x1="15.7462" y1="17.954" x2="15.7462" y2="-0.507001" gradientUnits="userSpaceOnUse">
<stop stop-color="#B7DCE2"/>
<stop offset="0.6608" stop-color="#3BA4B6"/>
<stop offset="1" stop-color="#008AA1"/>
</linearGradient>
<linearGradient id="paint1_linear_1173_382" x1="15.8357" y1="18.0607" x2="31.8231" y2="27.2914" gradientUnits="userSpaceOnUse">
<stop stop-color="#F2E5B2"/>
<stop offset="0.1013" stop-color="#F0DF9E"/>
<stop offset="0.4039" stop-color="#E9CE68"/>
<stop offset="0.6655" stop-color="#E4C240"/>
<stop offset="0.8728" stop-color="#E1BB28"/>
<stop offset="1" stop-color="#E0B81F"/>
</linearGradient>
<linearGradient id="paint2_linear_1173_382" x1="-0.315914" y1="27.3287" x2="15.6713" y2="18.0982" gradientUnits="userSpaceOnUse">
<stop offset="0.1437" stop-color="#2D0060"/>
<stop offset="1" stop-color="#9374B6"/>
</linearGradient>
</defs>
</svg>
